<?xml version="1.0" encoding="utf-8"?>
<!-- Generator: Adobe Illustrator 25.1.0, SVG Export Plug-In . SVG Version: 6.00 Build 0)  -->
<svg version="1.1" id="Layer_1" xmlns="http://www.w3.org/2000/svg" xmlns:xlink="http://www.w3.org/1999/xlink" x="0px" y="0px"
	 viewBox="0 0 512 512" style="enable-background:new 0 0 512 512;" xml:space="preserve">
<style type="text/css">
	.st0{fill:#F1E9D8;}
	.st1{fill:#F9EFE1;}
	.st2{fill:#FFFFFF;}
	.st3{fill:#CDAB7C;}
	.st4{fill:#BC9167;}
	.st5{fill:#F0E4CE;}
	.st6{fill:#EBA153;}
	.st7{fill:#CEAC7E;}
	.st8{fill:#B08824;}
	.st9{fill:#D7C3A6;}
	.st10{display:none;}
	.st11{display:inline;fill:#F9EFE1;}
	.st12{display:inline;fill:#F7F2EA;}
	.st13{display:inline;fill:#CDAB7C;}
	.st14{display:inline;fill:#BC9167;}
	.st15{display:inline;fill:#F0E4CE;}
	.st16{display:inline;fill:#EBA153;}
	.st17{display:inline;fill:#CEAC7E;}
	.st18{display:inline;fill:#B08824;}
	.st19{display:inline;}
</style>
<rect class="st0" width="512" height="512"/>
<g>
	<path class="st1" d="M430.7,163.1c-5.2-5.5-15.6-4.4-22.8-4.3c-2.3,0.1-4.8,0.4-6.9-0.4c2.1-12.9,4.2-26.4-12.1-30
		c-3.1-0.4-7.2-0.4-10.9-0.4c0,0,0,0,0,0c-0.3,0-0.7,0-1,0c-1,0-2.1,0-3.2,0.1c1.3-14.9-3.4-28.4-20.5-28.6
		c-15.8-0.1-31.8,0.3-47.6,0.4l-77.2,0.3l-66.3,0.3c-15.7,0.2-36.4-2.7-48.2,9c-4.8,4.7-8.3,9.9-9.7,16.6
		c-2.1,11.2-3.2,23.4-4.5,34.8l-8,68.8l-9.9,86.3c-1.7,15-3.6,30.7-4.8,45.8c-0.6,7.4,2.5,13.4,6.5,18.2c8,9.7,26.9,5.3,29.2,8.3
		c0.2,26.1,21,23.3,39.6,23.4l34.5,0.1l59.2,0.2c10.8,0,23.3,0.4,33.9-0.1c2.5-0.1,5.1-0.4,7.5-0.8c4.2,0.8,11.6,0.8,16,0.8
		c17,0.4,37.2,1.2,54.1-0.9c9.9-1.2,16.4-10.9,23.4-15.9c28.7-20.8,26.8-39.2,31.8-71.1l11.1-71.1l7.9-49.4
		C433.3,192.5,439.1,171.9,430.7,163.1z"/>
	<path class="st2" d="M112.6,388.4c-2.2-3-21.2,1.4-29.2-8.3c-3.9-4.8-7.1-10.8-6.5-18.2c1.2-15.1,3.1-30.8,4.8-45.8l9.9-86.3
		l8-68.8c1.3-11.4,2.5-23.6,4.5-34.8c1.4-6.7,4.9-11.9,9.7-16.6c11.8-11.7,32.6-8.9,48.2-9l66.3-0.3l77.2-0.3
		c15.8-0.2,31.8-0.6,47.6-0.4c17.1,0.1,21.8,13.7,20.5,28.6c4.5-0.1,10.8-0.3,15.2,0.3c16.3,3.6,14.2,17.1,12.1,30
		c2.1,0.8,4.6,0.5,6.9,0.4c7.1-0.1,17.5-1.1,22.8,4.3c8.4,8.8,2.5,29.4,0.8,40.4l-7.9,49.4L412.5,324c-5,31.9-3.1,50.3-31.8,71.1
		c-7,5.1-13.5,14.7-23.4,15.9c-16.9,2.1-37.1,1.3-54.1,0.9c-4.4,0-11.8,0-16-0.8c-2.5,0.4-5,0.7-7.5,0.8
		c-10.6,0.5-23.1,0.1-33.9,0.1l-59.2-0.2l-34.5-0.1C133.6,411.7,112.8,414.5,112.6,388.4z"/>
	<path class="st3" d="M388.9,128.4c16.3,3.6,14.2,17.1,12.1,30c2.1,0.8,4.6,0.5,6.9,0.4c7.1-0.1,17.5-1.1,22.8,4.3
		c8.4,8.8,2.5,29.4,0.8,40.4l-7.9,49.4L412.5,324c-5,31.9-3.1,50.3-31.8,71.1c-7,5.1-13.5,14.7-23.4,15.9
		c-16.9,2.1-37.1,1.3-54.1,0.9c-4.4,0-11.8,0-16-0.8c-2.5,0.4-5,0.7-7.5,0.8c-10.6,0.5-23.1,0.1-33.9,0.1l-59.2-0.2l-34.5-0.1
		c-18.5,0-39.4,2.8-39.6-23.4c3.6,0.8,19.4,0.2,24,0.2l46.9-0.1l51-0.1c10,0,20.7,0.4,30.6-0.8c3.2-0.5,8.6-3.8,11-6
		c22.1-20.8,43.7-42.3,65.4-63.7c10.9-10.7,11.4-31.1,13.2-45.8c5.9-47.8,13.4-96.1,19.1-143.9C379.7,128,384.5,127.8,388.9,128.4z"
		/>
	<path class="st4" d="M408,158.7c7.1-0.1,17.5-1.1,22.8,4.3c8.4,8.8,2.5,29.4,0.8,40.4l-7.9,49.4L412.5,324
		c-5,31.9-3.1,50.3-31.8,71.1c-7,5.1-13.5,14.7-23.4,15.9c-16.9,2.1-37.1,1.3-54.1,0.9c4.2-4.7,13.4-12.6,18.3-17.1l34.6-31.5
		c24.9-22.8,25.2-22.1,30-55.7l5.5-37.4C397,233.6,403.4,195.3,408,158.7z"/>
	<path class="st5" d="M401,158.4c2.1,0.8,4.6,0.5,6.9,0.4c-4.6,36.6-11,74.9-16.4,111.5l-5.5,37.4c-4.8,33.6-5.1,32.9-30,55.7
		l-34.6,31.5c-4.9,4.5-14.1,12.4-18.3,17.1c-4.4,0-11.8,0-16-0.8c2.7-1.1,5.2-2.3,7.6-3.9c10.5-7.2,20.4-18.1,29.9-26.8
		c13.4-12.3,27.9-24.2,40.5-37.3c2.7-2.8,5.5-6,7.3-9.5c6.3-12.1,9.7-48.2,11.8-62.9l10.8-72.6C397,185.4,398.8,171,401,158.4z"/>
	<path class="st6" d="M161.6,260.2c2.1-6.6,10.7-39.6,14.3-42.6c1.4-1.2,3.4-1.8,5.2-1.7c1.4,0.1,3.2,0.8,4,2.1
		c2.2,3.6-2.1,12.7-3.5,16.5c-2.7,8.2-11.1,37.5-14.9,42.6c-1.4,1.9-3.4,2.8-5.7,3c-2.3,0.2-5.2,0.2-7.1-1.5
		c-3.4-3-4.2-33.9-4.9-40.5c-2.5,7.4-10.4,36-14.5,40.2c-1.4,1.4-3.5,1.8-5.4,1.9c-2.4,0.1-5.8-0.1-7.3-2.3
		c-1.5-2.1-5.7-52.5-5.1-56.9c0.3-2.2,2.3-3.5,3.9-4.8c3.2-0.2,8-0.2,8.4,4.2c1.2,13,1,26.2,2.3,39.3c3.3-10.2,8.8-30.8,13.2-39.2
		c1-2,2.6-3.5,4.8-4.1c2.3-0.6,5.4-0.5,7.3,1.1C160.1,220.3,161.2,254.1,161.6,260.2z"/>
	<path class="st7" d="M213.2,215.2c-3,0.4-5.5,0.9-8.4,2.1c-18.6,7.7-26.5,46.7-10.4,59.7c3.9,3.1,9.1,3.6,14.2,3.5
		c8.3-1.4,13.1-4.3,18.3-11.3C238.2,253.8,241.8,213.1,213.2,215.2z M209.8,267.9c-5.8,0-10.1-2.4-11.1-8.4
		c-1.7-11.2,0.8-28.3,13.3-31.6C229.2,227.7,224.5,262.2,209.8,267.9z"/>
	<path class="st4" d="M329.8,223.4c-6.9-10.3-20.9-8.6-31.8-8.4c-2.1,1.4-4.7,3.3-5,5.9c-1,10.5-7.5,47-6.4,55.2
		c5.6,5.5,24.5,2.2,30.9-1.2c8.9-6.1,13.1-14.5,15.1-24.9C334.3,241.8,334.7,230.6,329.8,223.4z M313.4,263.4
		c-5,3.2-8.5,2.7-14.3,2.7c1.8-12.8,3.5-25.6,5.1-38.4c4.2-0.1,10.2-0.9,13.3,2.4C325.3,238.5,320.5,256.2,313.4,263.4z"/>
	<path class="st8" d="M282.2,237.6c3.7-24.2-15.4-22.8-31.4-22.4c-1.7,0.7-5,2.5-5.1,4.4c-0.7,8.8-8.9,52.3-6.9,58
		c2.6,3.1,6.2,3.4,9.5,0.8c5.3-4.2,0-20.6,7.6-21.3c4.5-0.5,5.9,9.1,7.2,12.5c1.3,4.1,1.7,7.5,5.9,9.7c2.8,1.5,6.7,0.9,7.9-2.1
		c2.3-5.8-3.9-17.4-5.8-23C277.1,249.9,281,245.3,282.2,237.6z M266.2,243.7c-4,2.1-7.3,1.5-11.9,1.5c0.6-5.8,1.4-11.6,2.3-17.3
		c4.4-0.2,8.4-0.9,11.8,2.4C272.6,234.3,269.5,240.1,266.2,243.7z"/>
	<g>
		<g>
			<g>
				<path class="st9" d="M207.9,152.7h-76.2c-3.1,0-5.7-2.5-5.7-5.7s2.5-5.7,5.7-5.7h76.2c3.1,0,5.7,2.5,5.7,5.7
					S211,152.7,207.9,152.7z"/>
			</g>
			<g>
				<path class="st9" d="M184.3,178.8h-52.6c-3.1,0-5.7-2.5-5.7-5.7s2.5-5.7,5.7-5.7h52.6c3.1,0,5.7,2.5,5.7,5.7
					C190,176.3,187.4,178.8,184.3,178.8z"/>
			</g>
		</g>
	</g>
</g>
<g class="st10">
	<path class="st11" d="M416.3,170.7c-4.8-5-14.3-4.1-20.9-4c-2.1,0.1-4.4,0.4-6.4-0.3c2-11.9,3.9-24.3-11.1-27.5
		c-2.9-0.4-6.6-0.4-10-0.3c0,0,0,0,0,0c-0.3,0-0.6,0-0.9,0c-1,0-2,0-3,0.1c1.2-13.7-3.1-26.1-18.8-26.2c-14.5-0.1-29.2,0.2-43.7,0.4
		l-70.8,0.2l-60.8,0.3c-14.4,0.1-33.4-2.5-44.3,8.3c-4.4,4.3-7.6,9.1-8.9,15.2c-1.9,10.3-2.9,21.5-4.2,32l-7.4,63.1l-9.1,79.2
		c-1.6,13.8-3.3,28.2-4.4,42c-0.5,6.8,2.3,12.3,5.9,16.7c7.3,8.9,24.7,4.8,26.8,7.6c0.2,24,19.3,21.4,36.3,21.4l31.6,0.1l54.3,0.2
		c9.9,0,21.4,0.4,31.1-0.1c2.3-0.1,4.6-0.3,6.9-0.7c3.9,0.7,10.6,0.8,14.7,0.8c15.6,0.4,34.2,1.1,49.7-0.8c9.1-1.1,15-10,21.4-14.6
		c26.3-19.1,24.6-36,29.2-65.3l10.2-65.3l7.3-45.4C418.7,197.8,424,178.8,416.3,170.7z"/>
	<path class="st12" d="M124.4,377.5c-2.1-2.8-19.5,1.3-26.8-7.6c-3.6-4.4-6.5-9.9-5.9-16.7c1.1-13.9,2.8-28.2,4.4-42l9.1-79.2
		l7.4-63.1c1.2-10.4,2.3-21.7,4.2-32c1.2-6.1,4.5-10.9,8.9-15.2c10.9-10.8,29.9-8.2,44.3-8.3l60.8-0.3l70.8-0.2
		c14.5-0.2,29.2-0.5,43.7-0.4c15.7,0.1,20,12.6,18.8,26.2c4.2-0.1,9.9-0.3,14,0.3c15,3.3,13,15.7,11.1,27.5c1.9,0.8,4.2,0.4,6.4,0.3
		c6.6-0.1,16.1-1,20.9,4c7.7,8.1,2.3,27,0.7,37.1l-7.3,45.3l-10.2,65.3c-4.5,29.3-2.9,46.2-29.2,65.3c-6.4,4.6-12.4,13.5-21.4,14.6
		c-15.5,1.9-34,1.2-49.7,0.8c-4.1,0-10.8,0-14.7-0.8c-2.3,0.4-4.6,0.6-6.9,0.7c-9.7,0.4-21.2,0.1-31.1,0.1l-54.3-0.2l-31.6-0.1
		C143.7,398.9,124.5,401.5,124.4,377.5z"/>
	<path class="st13" d="M378,138.9c15,3.3,13,15.7,11.1,27.5c1.9,0.8,4.2,0.4,6.4,0.3c6.6-0.1,16.1-1,20.9,4c7.7,8.1,2.3,27,0.7,37.1
		l-7.3,45.3l-10.2,65.3c-4.5,29.3-2.9,46.2-29.2,65.3c-6.4,4.6-12.4,13.5-21.4,14.6c-15.5,1.9-34,1.2-49.7,0.8
		c-4.1,0-10.8,0-14.7-0.8c-2.3,0.4-4.6,0.6-6.9,0.7c-9.7,0.4-21.2,0.1-31.1,0.1l-54.3-0.2l-31.6-0.1c-17,0-36.2,2.5-36.3-21.4
		c3.3,0.8,17.8,0.2,22,0.2l43-0.1l46.8-0.1c9.2,0,19,0.3,28.1-0.8c3-0.5,7.9-3.5,10.1-5.5c20.3-19.1,40.1-38.9,60-58.5
		c10-9.8,10.5-28.5,12.1-42c5.4-43.9,12.3-88.2,17.6-132.1C369.5,138.5,373.9,138.4,378,138.9z"/>
	<path class="st14" d="M395.5,166.7c6.6-0.1,16.1-1,20.9,4c7.7,8.1,2.3,27,0.7,37.1l-7.3,45.4l-10.2,65.3
		c-4.5,29.3-2.9,46.2-29.2,65.3c-6.4,4.6-12.4,13.5-21.4,14.6c-15.5,1.9-34,1.2-49.7,0.8c3.9-4.3,12.3-11.6,16.8-15.7l31.7-29
		c22.9-20.9,23.1-20.3,27.5-51.1l5-34.4C385.4,235.5,391.3,200.3,395.5,166.7z"/>
	<path class="st15" d="M389.1,166.4c1.9,0.8,4.2,0.4,6.4,0.3c-4.2,33.5-10,68.8-15,102.3l-5,34.4c-4.4,30.8-4.6,30.2-27.5,51.1
		l-31.7,29c-4.5,4.1-12.9,11.4-16.8,15.7c-4.1,0-10.8,0-14.7-0.8c2.4-1,4.8-2.1,7-3.6c9.7-6.6,18.7-16.6,27.4-24.6
		c12.3-11.3,25.6-22.2,37.1-34.2c2.5-2.6,5-5.5,6.7-8.7c5.8-11.1,8.9-44.3,10.9-57.7l9.9-66.6C385.4,191.2,387,178,389.1,166.4z"/>
	<path class="st16" d="M169.3,259.9c1.9-6.1,9.8-36.3,13.1-39.1c1.3-1.1,3.1-1.7,4.8-1.5c1.3,0.1,2.9,0.7,3.6,1.9
		c2.1,3.3-1.9,11.6-3.2,15.1c-2.5,7.5-10.2,34.4-13.6,39.1c-1.3,1.7-3.1,2.6-5.2,2.8c-2.1,0.2-4.8,0.2-6.5-1.3
		c-3.1-2.8-3.9-31.1-4.5-37.2c-2.3,6.8-9.5,33.1-13.3,36.9c-1.3,1.3-3.2,1.7-4.9,1.7c-2.2,0.1-5.3-0.1-6.7-2.1
		c-1.4-2-5.2-48.2-4.6-52.2c0.3-2,2.1-3.2,3.6-4.4c3-0.2,7.4-0.2,7.7,3.9c1.1,12,0.9,24.1,2.1,36c3.1-9.3,8.1-28.3,12.1-36
		c0.9-1.8,2.4-3.2,4.4-3.8c2.1-0.5,4.9-0.4,6.7,1C168,223.2,169,254.2,169.3,259.9z"/>
	<path class="st17" d="M216.7,218.5c-2.8,0.4-5,0.8-7.7,2c-17.1,7.1-24.4,42.8-9.6,54.7c3.5,2.9,8.4,3.3,13,3.2
		c7.6-1.3,12.1-3.9,16.8-10.3C239.7,254,243,216.6,216.7,218.5z M213.6,267c-5.3,0-9.3-2.2-10.2-7.7c-1.6-10.3,0.7-25.9,12.2-29
		C231.4,230,227.1,261.7,213.6,267z"/>
	<path class="st14" d="M323.8,226.1c-6.3-9.5-19.2-7.9-29.2-7.7c-1.9,1.3-4.3,3-4.5,5.4c-0.9,9.6-6.9,43.1-5.9,50.7
		c5.1,5.1,22.5,2,28.4-1.1c8.2-5.6,12-13.3,13.9-22.9C327.8,243,328.2,232.7,323.8,226.1z M308.6,262.8c-4.5,3-7.8,2.5-13.1,2.5
		c1.7-11.7,3.2-23.5,4.6-35.2c3.9-0.1,9.4-0.8,12.2,2.2C319.6,239.9,315.2,256.2,308.6,262.8z"/>
	<path class="st18" d="M280,239.1c3.4-22.2-14.1-20.9-28.8-20.6c-1.6,0.7-4.6,2.3-4.7,4c-0.6,8.1-8.1,48-6.3,53.2
		c2.4,2.8,5.7,3.1,8.7,0.8c4.9-3.9,0-18.9,7-19.5c4.1-0.4,5.4,8.4,6.6,11.5c1.2,3.8,1.6,6.9,5.4,8.9c2.6,1.4,6.2,0.8,7.3-2
		c2.1-5.3-3.5-16-5.4-21.1C275.4,250.4,279,246.1,280,239.1z M265.4,244.7c-3.7,1.9-6.7,1.4-10.9,1.3c0.6-5.3,1.3-10.6,2.1-15.9
		c4-0.2,7.7-0.8,10.8,2.2C271.2,236.1,268.4,241.4,265.4,244.7z"/>
	<g class="st19">
		<g>
			<g>
				<path class="st9" d="M211.8,161.2h-69.9c-2.9,0-5.2-2.3-5.2-5.2s2.3-5.2,5.2-5.2h69.9c2.9,0,5.2,2.3,5.2,5.2
					S214.7,161.2,211.8,161.2z"/>
			</g>
			<g>
				<path class="st9" d="M190.2,185.1h-48.2c-2.9,0-5.2-2.3-5.2-5.2s2.3-5.2,5.2-5.2h48.2c2.9,0,5.2,2.3,5.2,5.2
					S193.1,185.1,190.2,185.1z"/>
			</g>
		</g>
	</g>
</g>
</svg>
